<?xml version="1.0" standalone="no"?>
<!DOCTYPE svg PUBLIC "-//W3C//DTD SVG 20010904//EN"
 "http://www.w3.org/TR/2001/REC-SVG-20010904/DTD/svg10.dtd">
<svg version="1.0" xmlns="http://www.w3.org/2000/svg"
 width="1024.000000pt" height="1024.000000pt" viewBox="0 0 1024.000000 1024.000000"
 preserveAspectRatio="xMidYMid meet">
<metadata>
Created by potrace 1.11, written by Peter Selinger 2001-2013
</metadata>
<g transform="translate(0.000000,1024.000000) scale(0.100000,-0.100000)"
fill="#000000" stroke="none">
<path d="M2490 9808 c-157 -16 -285 -60 -402 -139 -204 -138 -329 -336 -375
-594 -8 -46 -9 -8209 -1 -8295 7 -79 9 -89 28 -160 15 -58 90 -220 101 -220 5
0 9 -5 9 -11 0 -23 97 -132 173 -194 115 -95 257 -159 402 -183 53 -9 5337 -9
5395 0 130 20 299 97 402 185 163 139 262 309 299 518 20 107 19 8289 0 8390
-33 172 -113 326 -231 446 -148 150 -299 225 -510 255 -67 9 -5199 12 -5290 2z"/>
</g>
</svg>
